<?xml version="1.0" encoding="UTF-8"?>
<svg id="Layer_1" data-name="Layer 1" xmlns="http://www.w3.org/2000/svg" viewBox="0 0 505.97 505.97">
  <defs>
    <style>
      .cls-1 {
        fill: #57698f;
      }

      .cls-2 {
        fill: #252c3a;
        stroke: #fff;
        stroke-miterlimit: 10;
      }

      .cls-3 {
        fill: #39445b;
      }

      .cls-4 {
        fill: #c7cedb;
      }
    </style>
  </defs>
  <circle class="cls-1" cx="250.75" cy="255.22" r="213.62"/>
  <polygon class="cls-4" points="118.26 136.11 378.93 136.11 344.74 193.37 289.43 193.37 293.35 184.3 203.28 183.92 238.97 250.62 208.33 301.07 118.26 136.11"/>
  <polygon class="cls-4" points="82.06 197.52 145.67 197.52 173.88 250.15 159.68 250.15 198.87 322.86 241.09 254.36 307.74 254.36 205.12 423.7 82.06 197.52"/>
  <polygon class="cls-4" points="214.68 197.52 242.71 249.3 329.98 249.3 284.01 324.5 277.84 311.09 243.65 367.21 274.48 423.7 411.63 197.52 214.68 197.52"/>
  <path class="cls-3" d="M252.99,0C113.27,0,0,113.27,0,252.99s113.27,252.99,252.99,252.99,252.99-113.27,252.99-252.99S392.71,0,252.99,0ZM250.67,476.9c-122.39,0-221.6-99.21-221.6-221.6S128.28,33.71,250.67,33.71s221.6,99.21,221.6,221.6-99.21,221.6-221.6,221.6Z"/>
  <circle class="cls-4" cx="252.99" cy="17.04" r="6.14"/>
  <circle class="cls-4" cx="252.99" cy="491.46" r="6.14"/>
  <circle class="cls-4" cx="464.37" cy="360.45" r="6.14"/>
  <circle class="cls-4" cx="35.21" cy="348.17" r="6.14"/>
  <circle class="cls-4" cx="45.78" cy="136.11" r="6.14"/>
  <circle class="cls-4" cx="455.95" cy="136.11" r="6.14"/>
  <g>
    <polygon class="cls-2" points="170.3 65.76 176.56 65.76 176.56 113.58 182.83 117.1 182.83 65.76 189.09 65.76 189.09 113.58 176.56 120.78 170.3 117.1 170.3 65.76"/>
    <polygon class="cls-2" points="206.8 65.19 200.48 68.82 207.01 72.14 207.01 84.75 200.48 84.75 200.48 68.82 194.27 72.39 194.27 120.78 200.54 120.78 200.54 89.96 206.8 89.96 206.8 120.78 213.07 120.78 213.07 68.79 206.8 65.19"/>
    <polygon class="cls-2" points="218.39 65.76 224.66 65.76 224.66 114.15 232.51 116.38 228.4 121.28 218.39 118.4 218.39 65.76"/>
    <polygon class="cls-2" points="235.24 65.76 235.24 120.78 241.5 120.78 241.5 90.39 247.77 90.39 247.77 120.78 254.03 120.78 254.03 65.76 247.85 65.76 247.76 84.75 241.64 84.75 241.5 65.76 235.24 65.76"/>
    <polygon class="cls-2" points="272.11 64.83 265.8 68.46 272.32 71.77 272.32 84.38 265.8 84.38 265.8 68.46 259.59 72.03 259.59 120.41 265.85 120.41 265.85 89.6 272.11 89.6 272.11 120.41 278.38 120.41 278.38 68.43 272.11 64.83"/>
    <polygon class="cls-2" points="329.41 64.83 323.09 68.46 329.61 71.77 329.61 84.38 323.09 84.38 323.09 68.46 316.88 72.03 316.88 120.41 323.14 120.41 323.14 89.6 329.41 89.6 329.41 120.41 335.67 120.41 335.67 68.43 329.41 64.83"/>
    <polygon class="cls-2" points="284.03 65.79 290.29 65.79 290.29 114.18 298.14 116.41 294.04 121.31 284.03 118.43 284.03 65.79"/>
    <polygon class="cls-2" points="300.28 65.79 306.54 65.79 306.54 114.18 314.39 116.41 310.29 121.31 300.28 118.43 300.28 65.79"/>
  </g>
</svg>